<svg width="72" height="72" viewBox="0 0 72 72" fill="none" xmlns="http://www.w3.org/2000/svg">
<path d="M48.0368 35.4043C47.7395 35.1664 47.3828 34.9682 47.0656 34.7502C46.8476 34.4925 46.5701 34.3142 46.2332 34.1952C44.1125 32.9862 41.7143 32.2727 39.3359 32.2727C38.8404 32.2727 38.3845 32.4709 38.0277 32.8078L35.6097 35.2457L33.1719 32.8277C32.8349 32.4709 32.3592 32.2925 31.8637 32.2925C29.4655 32.2925 27.0277 33.0259 24.907 34.2547C24.6097 34.3538 24.3718 34.5322 24.1736 34.7502C23.8367 34.9682 23.4799 35.1664 23.1628 35.4043C20.6853 37.3466 18.7826 40.1809 18.7826 43.4908V49.0998C18.7826 55.2836 23.8169 60.2981 30.0007 60.2981H41.2188C47.4026 60.2981 52.4368 55.2836 52.4368 49.0998V43.4908C52.417 40.1809 50.5143 37.3466 48.0368 35.4043ZM39.9305 36.2169C40.9215 36.2962 41.9719 36.4944 42.9827 36.8709L40.8422 40.4583L38.2656 37.8817L39.9305 36.2169ZM32.9737 37.8817L30.3971 40.4583L28.2565 36.8709C29.2673 36.5142 30.3178 36.2962 31.3088 36.2169L32.9737 37.8817ZM48.6909 49.0998C48.6909 53.262 45.3809 56.5521 41.2188 56.5521H30.0007C25.8187 56.5521 22.5286 53.262 22.5286 49.0998V43.4908C22.5286 41.7863 23.4997 40.1412 25.0457 38.7736L28.4151 44.4421C29.0295 45.4926 30.4764 45.671 31.3484 44.8187L35.6097 40.5178L39.8908 44.7989C40.7629 45.6512 42.1899 45.4728 42.8242 44.4223L46.1936 38.7538C47.7395 40.1214 48.7107 41.7665 48.7107 43.471V49.0998H48.6909Z" fill="#D2D2D2"/>
<path d="M35.6097 28.5466C40.2277 28.5466 44.0332 24.7609 44.0332 20.1429C44.0332 15.5249 40.2476 11.7393 35.6097 11.7393C30.9917 11.7393 27.2061 15.5249 27.2061 20.1429C27.2061 24.7609 30.9718 28.5466 35.6097 28.5466ZM35.6097 15.4654C38.2061 15.4654 40.2872 17.5465 40.2872 20.1429C40.2872 22.7393 38.2061 24.8204 35.6097 24.8204C33.0133 24.8204 30.952 22.7393 30.952 20.1429C30.952 17.5465 32.9935 15.4654 35.6097 15.4654Z" fill="#D2D2D2"/>
<path d="M43.0819 47.2168H41.2188C38.7215 47.2168 38.7215 50.9628 41.2188 50.9628H43.0819C45.5594 50.9628 45.5594 47.2168 43.0819 47.2168Z" fill="#D2D2D2"/>
</svg>
