<svg width="32" height="32" viewBox="0 0 32 32" fill="none" xmlns="http://www.w3.org/2000/svg">
<path fill-rule="evenodd" clip-rule="evenodd" d="M7.33571 15.1217L12.8429 18.9359L10.5071 21.2787C10.4434 21.3397 10.3925 21.4128 10.3573 21.4937C10.3222 21.5747 10.3035 21.6618 10.3024 21.75C10.3012 21.8382 10.3177 21.9258 10.3508 22.0076C10.3839 22.0894 10.4329 22.1637 10.4951 22.2264C10.5572 22.289 10.6312 22.3386 10.7128 22.3723C10.7943 22.406 10.8818 22.4232 10.97 22.4227C11.0582 22.4223 11.1455 22.4042 11.2267 22.3697C11.3079 22.3351 11.3813 22.2848 11.4429 22.2215L13.9571 19.7073L15.6214 20.8644C15.7326 20.9415 15.8647 20.9828 16 20.9828C16.1353 20.9828 16.2674 20.9415 16.3786 20.8644L18.0429 19.7073L20.55 22.2215C20.6119 22.2834 20.6854 22.3325 20.7663 22.366C20.8472 22.3995 20.9339 22.4168 21.0214 22.4168C21.109 22.4168 21.1957 22.3995 21.2766 22.366C21.3575 22.3325 21.4309 22.2834 21.4929 22.2215C21.5548 22.1596 21.6039 22.0861 21.6374 22.0052C21.6709 21.9243 21.6881 21.8377 21.6881 21.7501C21.6881 21.6626 21.6709 21.5759 21.6374 21.495C21.6039 21.4141 21.5548 21.3406 21.4929 21.2787L19.1571 18.9359L24.6643 15.1217V22.4644C24.6662 22.7541 24.6106 23.0414 24.5008 23.3096C24.391 23.5777 24.2291 23.8215 24.0246 24.0267C23.82 24.2319 23.5768 24.3946 23.309 24.5052C23.0412 24.6159 22.7541 24.6724 22.4643 24.6715H9.57143C9.28165 24.6724 8.99456 24.6159 8.72675 24.5052C8.45894 24.3946 8.21572 24.2319 8.01114 24.0267C7.80657 23.8215 7.64471 23.5777 7.5349 23.3096C7.4251 23.0414 7.36954 22.7541 7.37143 22.4644L7.33571 15.1217ZM12.4286 13.186C12.2634 13.2031 12.1103 13.2809 11.9991 13.4042C11.8879 13.5276 11.8263 13.6878 11.8263 13.8539C11.8263 14.02 11.8879 14.1802 11.9991 14.3035C12.1103 14.4269 12.2634 14.5046 12.4286 14.5217H19.5714C19.6649 14.5314 19.7594 14.5213 19.8488 14.4922C19.9382 14.463 20.0204 14.4154 20.0902 14.3525C20.1601 14.2895 20.2159 14.2126 20.2541 14.1267C20.2923 14.0408 20.312 13.9479 20.312 13.8539C20.312 13.7599 20.2923 13.6669 20.2541 13.581C20.2159 13.4951 20.1601 13.4182 20.0902 13.3553C20.0204 13.2923 19.9382 13.2447 19.8488 13.2156C19.7594 13.1864 19.6649 13.1763 19.5714 13.186H12.4286ZM22.4286 12.8789L24.1143 13.8932L22.4286 15.0646V12.8789ZM9.57143 12.8789V15.0217L7.9 13.8932L9.57143 12.8789ZM12.3429 9.57183C12.1629 9.58319 11.9948 9.66558 11.8756 9.80087C11.7564 9.93617 11.6958 10.1133 11.7071 10.2932C11.7185 10.4732 11.8009 10.6413 11.9362 10.7605C12.0715 10.8797 12.2486 10.9403 12.4286 10.9289H16C16.18 10.9289 16.3526 10.8574 16.4798 10.7302C16.6071 10.6029 16.6786 10.4303 16.6786 10.2504C16.6786 10.0704 16.6071 9.89782 16.4798 9.77057C16.3526 9.64332 16.18 9.57183 16 9.57183H12.3429ZM18.8143 8.49328L20.3214 10.2861H18.8143V8.49328ZM11.7143 7.33617H17.5071V11.0004C17.5071 11.1784 17.5779 11.3492 17.7038 11.4751C17.8297 11.601 18.0005 11.6718 18.1786 11.6718H21.1V16.0002L16 19.5002L10.9214 16.0002V8.14329C10.9209 8.04206 10.9409 7.94178 10.9802 7.84849C11.0195 7.7552 11.0772 7.67082 11.15 7.60045C11.218 7.51663 11.3041 7.44931 11.4018 7.40353C11.4995 7.35776 11.6064 7.33473 11.7143 7.33617V7.33617ZM18.1429 6.00048H11.7143C11.146 6.00048 10.6009 6.22624 10.1991 6.6281C9.79719 7.02995 9.57143 7.57498 9.57143 8.14329V11.3575L6.36429 13.286C6.25835 13.3404 6.16878 13.422 6.10476 13.5224C6.04075 13.6228 6.00459 13.7384 6 13.8574V22.4644C6.00941 23.4053 6.38984 24.3046 7.05859 24.9666C7.72735 25.6287 8.63038 26 9.57143 26H22.5C23.4286 25.9815 24.3135 25.6019 24.9669 24.9418C25.6203 24.2818 25.9909 23.3931 26 22.4644V13.8574C25.9993 13.7293 25.9619 13.604 25.8923 13.4965C25.8227 13.3889 25.7237 13.3035 25.6071 13.2503L22.4286 11.3218V11.1718C22.4561 11.0639 22.4554 10.9508 22.4267 10.8432C22.3979 10.7356 22.342 10.6373 22.2643 10.5575L18.6929 6.27191C18.6311 6.18443 18.5484 6.11378 18.4523 6.06638C18.3563 6.01898 18.2499 5.99633 18.1429 6.00048Z" fill="#D2D2D2"/>
</svg>
