<svg width="62" height="62" viewBox="0 0 62 62" fill="none" xmlns="http://www.w3.org/2000/svg">
<g clip-path="url(#clip0_2_142)">
<path d="M20.2723 16.5657H42.7444C43.1647 16.5634 43.5813 16.6452 43.97 16.8064C44.3588 16.9675 44.712 17.2048 45.0092 17.5046C45.3064 17.8043 45.5417 18.1605 45.7015 18.5525C45.8613 18.9446 45.9424 19.3647 45.9401 19.7885V45.5028C45.9424 45.9267 45.8613 46.3468 45.7015 46.7388C45.5417 47.1309 45.3064 47.4871 45.0092 47.7868C44.712 48.0865 44.3588 48.3238 43.97 48.485C43.5813 48.6461 43.1647 48.7279 42.7444 48.7257H20.2723C19.8514 48.7303 19.4338 48.65 19.044 48.4897C18.6542 48.3294 18.3001 48.0921 18.0025 47.792C17.7048 47.4918 17.4696 47.1347 17.3106 46.7416C17.1516 46.3485 17.0721 45.9273 17.0766 45.5028V19.7885C17.0721 19.364 17.1516 18.9429 17.3106 18.5498C17.4696 18.1567 17.7048 17.7996 18.0025 17.4994C18.3001 17.1992 18.6542 16.962 19.044 16.8017C19.4338 16.6413 19.8514 16.5611 20.2723 16.5657ZM20.2723 13.3428C19.4405 13.3495 18.6181 13.5217 17.8523 13.8495C17.0866 14.1773 16.3925 14.6542 15.8098 15.253C15.2271 15.8518 14.7673 16.5606 14.4567 17.3389C14.1462 18.1172 13.9909 18.9496 13.9999 19.7885V45.5028C13.9996 47.1917 14.6566 48.8133 15.8296 50.0187C17.0026 51.2241 18.5979 51.9171 20.2723 51.9485H42.7444C44.4188 51.9171 46.0141 51.2241 47.1871 50.0187C48.3601 48.8133 49.0172 47.1917 49.0169 45.5028V19.7885C49.0258 18.9496 48.8706 18.1172 48.56 17.3389C48.2494 16.5606 47.7896 15.8518 47.207 15.253C46.6243 14.6542 45.9302 14.1773 45.1644 13.8495C44.3986 13.5217 43.5763 13.3495 42.7444 13.3428H20.2723Z" fill="#D2D2D2"/>
<path d="M23.4512 10C23.2375 10.0063 23.0273 10.0563 22.8333 10.1469C22.6393 10.2375 22.4656 10.3668 22.3226 10.5271C22.1796 10.6873 22.0703 10.8752 22.0013 11.0792C21.9323 11.2833 21.9051 11.4993 21.9213 11.7143V19.7886C21.9213 20.2159 22.0896 20.6258 22.3893 20.928C22.6889 21.2302 23.0954 21.4 23.5191 21.4C23.9429 21.4 24.3493 21.2302 24.649 20.928C24.9487 20.6258 25.117 20.2159 25.117 19.7886V11.68C25.1083 11.2372 24.93 10.8149 24.6195 10.5018C24.3089 10.1886 23.8902 10.0088 23.4512 10V10Z" fill="#D2D2D2"/>
<path d="M21.8024 18.1086C21.5926 18.1164 21.3863 18.1659 21.1955 18.2542C21.0046 18.3424 20.8328 18.4677 20.69 18.623C20.5471 18.7782 20.436 18.9602 20.3629 19.1587C20.2898 19.3573 20.2562 19.5684 20.264 19.78C20.2719 19.9916 20.3209 20.1996 20.4084 20.3921C20.496 20.5846 20.6202 20.7578 20.7741 20.9019C20.928 21.0459 21.1085 21.158 21.3054 21.2317C21.5023 21.3054 21.7116 21.3393 21.9214 21.3314H25.1171C25.5409 21.3314 25.9473 21.1616 26.247 20.8594C26.5466 20.5572 26.715 20.1474 26.715 19.72C26.715 19.2926 26.5466 18.8827 26.247 18.5805C25.9473 18.2783 25.5409 18.1086 25.1171 18.1086H21.8024Z" fill="#D2D2D2"/>
<path d="M39.4299 10C39.2162 10.0063 39.006 10.0563 38.8121 10.1469C38.6181 10.2375 38.4443 10.3668 38.3013 10.5271C38.1583 10.6873 38.049 10.8752 37.98 11.0792C37.9111 11.2833 37.8839 11.4993 37.9 11.7143V19.7886C37.9 20.2159 38.0684 20.6258 38.368 20.928C38.6677 21.2302 39.0741 21.4 39.4979 21.4C39.9217 21.4 40.3281 21.2302 40.6278 20.928C40.9274 20.6258 41.0958 20.2159 41.0958 19.7886V11.68C41.0871 11.2372 40.9088 10.8149 40.5982 10.5018C40.2877 10.1886 39.869 10.0088 39.4299 10V10Z" fill="#D2D2D2"/>
<path d="M37.764 18.1086C37.3402 18.1267 36.9409 18.314 36.654 18.629C36.3671 18.9441 36.2161 19.3612 36.2341 19.7886C36.2521 20.2159 36.4378 20.6186 36.7502 20.9079C37.0626 21.1973 37.4762 21.3496 37.9 21.3314H41.0957C41.5195 21.3314 41.9259 21.1616 42.2256 20.8594C42.5252 20.5572 42.6936 20.1474 42.6936 19.72C42.6936 19.2926 42.5252 18.8827 42.2256 18.5805C41.9259 18.2783 41.5195 18.1086 41.0957 18.1086H37.696H37.764Z" fill="#D2D2D2"/>
<path d="M47.4701 24.5543H15.5298V27.7771H47.4701V24.5543Z" fill="#D2D2D2"/>
<path d="M31.4745 10C31.0237 10 30.5913 10.1806 30.2725 10.5021C29.9537 10.8236 29.7747 11.2596 29.7747 11.7143V18.1086C29.7747 18.5632 29.9537 18.9993 30.2725 19.3208C30.5913 19.6422 31.0237 19.8229 31.4745 19.8229C31.9253 19.8229 32.3577 19.6422 32.6765 19.3208C32.9953 18.9993 33.1744 18.5632 33.1744 18.1086V11.68C33.1655 11.2313 32.9825 10.804 32.6646 10.4899C32.3468 10.1758 31.9195 9.99991 31.4745 10Z" fill="#D2D2D2"/>
<path d="M25.1171 25.3257C24.6663 25.3257 24.2339 25.5063 23.9151 25.8278C23.5963 26.1493 23.4172 26.5853 23.4172 27.04V48.8114C23.4172 49.2388 23.5856 49.6486 23.8852 49.9508C24.1849 50.253 24.5913 50.4228 25.0151 50.4228C25.4389 50.4228 25.8453 50.253 26.145 49.9508C26.4446 49.6486 26.613 49.2388 26.613 48.8114V27.0057C26.6343 26.7942 26.6115 26.5805 26.5462 26.3784C26.4808 26.1763 26.3743 25.9902 26.2335 25.832C26.0927 25.6738 25.9206 25.5471 25.7283 25.4599C25.5361 25.3727 25.3279 25.327 25.1171 25.3257V25.3257Z" fill="#D2D2D2"/>
<path d="M31.3726 32.7143C31.1414 32.6806 30.9058 32.6984 30.6823 32.7665C30.4587 32.8345 30.2527 32.9512 30.0786 33.1082C29.9046 33.2652 29.7668 33.4588 29.6749 33.6753C29.5831 33.8918 29.5394 34.126 29.547 34.3614C29.5546 34.5968 29.6132 34.8276 29.7188 35.0377C29.8243 35.2477 29.9743 35.4319 30.158 35.5772C30.3418 35.7225 30.5549 35.8255 30.7824 35.8788C31.0098 35.9321 31.2461 35.9344 31.4746 35.8857H33.1744C33.5429 35.8185 33.8763 35.6229 34.1164 35.3331C34.3564 35.0433 34.488 34.6777 34.488 34.3C34.488 33.9224 34.3564 33.5567 34.1164 33.2669C33.8763 32.9771 33.5429 32.7815 33.1744 32.7143H31.3726Z" fill="#D2D2D2"/>
<path d="M39.2939 32.7143C37.2541 32.7143 37.3901 35.92 39.5489 35.92H41.0958C41.3183 35.9432 41.5432 35.9191 41.7559 35.8491C41.9686 35.7792 42.1643 35.6649 42.3304 35.5138C42.4966 35.3628 42.6294 35.1782 42.7203 34.972C42.8112 34.7659 42.8582 34.5428 42.8582 34.3171C42.8582 34.0915 42.8112 33.8684 42.7203 33.6623C42.6294 33.4561 42.4966 33.2715 42.3304 33.1204C42.1643 32.9694 41.9686 32.8551 41.7559 32.7852C41.5432 32.7152 41.3183 32.6911 41.0958 32.7143H39.2939Z" fill="#D2D2D2"/>
<path d="M31.4746 40.6686C31.0508 40.6686 30.6444 40.8384 30.3447 41.1406C30.0451 41.4428 29.8767 41.8526 29.8767 42.28C29.8767 42.7074 30.0451 43.1173 30.3447 43.4195C30.6444 43.7217 31.0508 43.8914 31.4746 43.8914H33.1744C33.5982 43.8914 34.0046 43.7217 34.3043 43.4195C34.6039 43.1173 34.7723 42.7074 34.7723 42.28C34.7723 41.8526 34.6039 41.4428 34.3043 41.1406C34.0046 40.8384 33.5982 40.6686 33.1744 40.6686H31.4746Z" fill="#D2D2D2"/>
<path d="M39.5488 40.6686C39.125 40.6686 38.7186 40.8384 38.4189 41.1406C38.1193 41.4428 37.9509 41.8526 37.9509 42.28C37.9509 42.7074 38.1193 43.1173 38.4189 43.4195C38.7186 43.7217 39.125 43.8914 39.5488 43.8914H41.0957C41.5194 43.8914 41.9259 43.7217 42.2255 43.4195C42.5252 43.1173 42.6935 42.7074 42.6935 42.28C42.6935 41.8526 42.5252 41.4428 42.2255 41.1406C41.9259 40.8384 41.5194 40.6686 41.0957 40.6686H39.5488Z" fill="#D2D2D2"/>
<path d="M29.7747 18.1086C27.7348 18.2457 27.8538 21.5371 29.8936 21.3314H33.2934C33.7171 21.3314 34.1236 21.1616 34.4232 20.8594C34.7229 20.5572 34.8912 20.1474 34.8912 19.72C34.8912 19.2926 34.7229 18.8827 34.4232 18.5805C34.1236 18.2783 33.7171 18.1086 33.2934 18.1086H29.7747Z" fill="#D2D2D2"/>
</g>
<defs>
<clipPath id="clip0_2_142">
<rect width="35" height="42" fill="white" transform="translate(14 10)"/>
</clipPath>
</defs>
</svg>
