<svg width="62" height="62" viewBox="0 0 62 62" fill="none" xmlns="http://www.w3.org/2000/svg">
<g clip-path="url(#clip0_2_135)">
<path d="M18.5568 37.843C18.1303 37.9029 17.7416 38.12 17.4669 38.4517C17.1922 38.7834 17.0513 39.2058 17.072 39.636C17.0928 40.0662 17.2735 40.4732 17.5788 40.777C17.8841 41.0808 18.2919 41.2595 18.7222 41.2782H44.4397C44.8646 41.2342 45.2581 41.0342 45.5442 40.717C45.8303 40.3998 45.9886 39.9878 45.9886 39.5606C45.9886 39.1334 45.8303 38.7214 45.5442 38.4042C45.2581 38.087 44.8646 37.887 44.4397 37.843H18.5568ZM11.8519 30.9911C11.5096 30.9912 11.175 31.0929 10.8907 31.2835C10.6063 31.474 10.385 31.7448 10.2549 32.0614C10.1248 32.378 10.0917 32.7261 10.1598 33.0616C10.2279 33.397 10.3942 33.7047 10.6375 33.9454C10.8809 34.1861 11.1903 34.3491 11.5264 34.4137C11.8626 34.4782 12.2103 34.4414 12.5255 34.3079C12.8407 34.1743 13.1091 33.9502 13.2966 33.6638C13.4841 33.3774 13.5823 33.0418 13.5786 32.6995C13.5787 32.4736 13.5339 32.25 13.4469 32.0415C13.3599 31.833 13.2324 31.6438 13.0718 31.485C12.9112 31.3261 12.7207 31.2006 12.5113 31.1159C12.3019 31.0311 12.0778 30.9887 11.8519 30.9911V30.9911ZM30.5522 30.9911C30.3124 30.9808 30.0731 31.0205 29.8495 31.1078C29.6259 31.1951 29.423 31.3281 29.2536 31.4982C29.0843 31.6684 28.9523 31.872 28.8661 32.096C28.7799 32.32 28.7413 32.5595 28.7528 32.7993C28.7644 33.039 28.8258 33.2738 28.9331 33.4885C29.0405 33.7032 29.1914 33.8931 29.3763 34.0462C29.5611 34.1993 29.7759 34.3122 30.0069 34.3776C30.2378 34.4431 30.4799 34.4596 30.7176 34.4263H34.9977C35.4226 34.3823 35.8161 34.1823 36.1022 33.8651C36.3883 33.5479 36.5466 33.1359 36.5466 32.7087C36.5466 32.2815 36.3883 31.8695 36.1022 31.5523C35.8161 31.2351 35.4226 31.0351 34.9977 30.9911H30.5522ZM18.5568 30.9911C18.317 30.9808 18.0777 31.0205 17.8541 31.1078C17.6305 31.1951 17.4276 31.3281 17.2582 31.4982C17.0889 31.6684 16.9569 31.872 16.8707 32.096C16.7845 32.32 16.7459 32.5595 16.7574 32.7993C16.769 33.039 16.8304 33.2738 16.9377 33.4885C17.0451 33.7032 17.196 33.8931 17.3809 34.0462C17.5657 34.1993 17.7805 34.3122 18.0115 34.3776C18.2424 34.4431 18.4845 34.4596 18.7222 34.4263H23.8657C24.2906 34.3823 24.6841 34.1823 24.9701 33.8651C25.2562 33.5479 25.4146 33.1359 25.4146 32.7087C25.4146 32.2815 25.2562 31.8695 24.9701 31.5523C24.6841 31.2351 24.2906 31.0351 23.8657 30.9911H18.5568ZM10.1435 29.2644H51.2916C51.5182 29.2619 51.743 29.305 51.9526 29.3911C52.1622 29.4772 52.3524 29.6046 52.5118 29.7657C52.6712 29.9268 52.7965 30.1183 52.8804 30.3288C52.9643 30.5393 53.0049 30.7646 53 30.9911V42.9865C53.0049 43.2131 52.9643 43.4383 52.8804 43.6489C52.7965 43.8594 52.6712 44.0509 52.5118 44.212C52.3524 44.3731 52.1622 44.5005 51.9526 44.5866C51.743 44.6727 51.5182 44.7158 51.2916 44.7133H22.7084C22.3008 44.5841 21.8596 44.6124 21.4719 44.7927C21.0842 44.9729 20.7781 45.292 20.6142 45.6869L18.7222 49.3608L16.8117 45.6869C16.6512 45.3852 16.4097 45.1342 16.1144 44.9622C15.8191 44.7902 15.4817 44.704 15.1401 44.7133H14.9564H10.1435C9.91691 44.7158 9.69212 44.6727 9.4825 44.5866C9.27289 44.5005 9.08273 44.3731 8.92335 44.212C8.76397 44.0509 8.63861 43.8594 8.55474 43.6489C8.47087 43.4383 8.43019 43.2131 8.43513 42.9865V30.9911C8.43019 30.7646 8.47087 30.5393 8.55474 30.3288C8.63861 30.1183 8.76397 29.9268 8.92335 29.7657C9.08273 29.6046 9.27289 29.4772 9.4825 29.3911C9.69212 29.305 9.91691 29.2619 10.1435 29.2644V29.2644ZM10.1435 25.8476C8.78234 25.8572 7.47965 26.4022 6.51713 27.3648C5.55461 28.3273 5.00962 29.63 5 30.9911V42.9865C5.0048 44.3509 5.54767 45.6583 6.51071 46.6248C7.47374 47.5912 8.77918 48.1388 10.1435 48.1484H14.1848L17.1424 54.0451C17.2878 54.3264 17.5078 54.5623 17.7784 54.727C18.0489 54.8917 18.3595 54.9788 18.6762 54.9788C18.9929 54.9788 19.3036 54.8917 19.5741 54.727C19.8446 54.5623 20.0646 54.3264 20.2101 54.0451L23.1676 48.1484H51.2916C52.6575 48.1436 53.9657 47.5976 54.9298 46.6301C55.8938 45.6626 56.4351 44.3524 56.4351 42.9865V30.9911C56.4303 29.6316 55.8894 28.3289 54.9298 27.3659C53.9702 26.4029 52.6695 25.8573 51.31 25.8476H10.1435ZM48.4076 12.6214L48.8117 13.4481C48.9344 13.7002 49.1178 13.9178 49.3455 14.0813C49.5731 14.2449 49.8379 14.3492 50.116 14.3849L51.0344 14.5319L50.3548 15.1748C50.1578 15.368 50.0099 15.6056 49.9236 15.8677C49.8373 16.1298 49.8151 16.4087 49.8588 16.6811L50.0057 17.5996L49.1975 17.1771C48.9483 17.0567 48.6751 16.9942 48.3984 16.9942C48.1217 16.9942 47.8485 17.0567 47.5993 17.1771L46.791 17.618L46.938 16.6995C46.9783 16.4258 46.9563 16.1465 46.8736 15.8825C46.7909 15.6185 46.6497 15.3766 46.4604 15.1748L45.7807 14.4584L46.6992 14.3482C46.9767 14.3109 47.2408 14.2059 47.4683 14.0426C47.6957 13.8792 47.8795 13.6624 48.0034 13.4113L48.4076 12.6214ZM30.7176 12.6214L31.1217 13.4481C31.2443 13.7002 31.4278 13.9178 31.6554 14.0813C31.8831 14.2449 32.1479 14.3492 32.4259 14.3849L33.3261 14.5319L32.6648 15.1748C32.4677 15.368 32.3199 15.6056 32.2336 15.8677C32.1473 16.1298 32.1251 16.4087 32.1688 16.6811L32.3157 17.5996L31.4891 17.1771C31.2452 17.05 30.9742 16.9836 30.6992 16.9836C30.4242 16.9836 30.1532 17.05 29.9093 17.1771L29.0643 17.618L29.2296 16.6995C29.2819 16.4257 29.2657 16.1432 29.1824 15.8772C29.099 15.6111 28.9512 15.3699 28.752 15.1748L28.0907 14.4584L29.0092 14.3482C29.2833 14.301 29.5432 14.1921 29.7691 14.0298C29.995 13.8675 30.1812 13.6561 30.3134 13.4113L30.7176 12.6214ZM13.0276 12.6214L13.4317 13.4665C13.5503 13.7196 13.7298 13.9394 13.9543 14.1061C14.1787 14.2728 14.4409 14.3812 14.7176 14.4217L15.6361 14.5503L14.9747 15.1932C14.7704 15.3855 14.6165 15.6253 14.5268 15.8912C14.4371 16.1571 14.4143 16.441 14.4604 16.7179L14.6073 17.618L13.7991 17.1955C13.5552 17.0683 13.2842 17.0019 13.0092 17.0019C12.7341 17.0019 12.4632 17.0683 12.2193 17.1955L11.3743 17.6364L11.5396 16.7179C11.58 16.4442 11.558 16.1649 11.4752 15.9009C11.3925 15.6369 11.2513 15.395 11.062 15.1932L10.3823 14.4584L11.3192 14.3482C11.59 14.2984 11.8462 14.1884 12.0688 14.0262C12.2914 13.864 12.4746 13.6539 12.6051 13.4113L13.0276 12.6214ZM48.4443 7.11054C48.1249 7.10486 47.8103 7.18987 47.5372 7.35568C47.2641 7.5215 47.0436 7.76134 46.9013 8.04739L45.4133 11.0784L41.9414 11.5744C41.6252 11.6116 41.3257 11.7364 41.0766 11.9348C40.8276 12.1332 40.6389 12.3972 40.532 12.6971C40.425 12.997 40.404 13.3208 40.4712 13.6321C40.5385 13.9433 40.6914 14.2295 40.9127 14.4584L43.411 16.92L42.8048 20.3551C42.75 20.6705 42.7839 20.995 42.9028 21.2922C43.0218 21.5895 43.221 21.8478 43.4782 22.0384C43.7355 22.229 44.0407 22.3442 44.3597 22.3714C44.6787 22.3985 44.999 22.3364 45.2847 22.1921L48.3892 20.5572L51.2916 22.1002C51.5977 22.2533 51.9405 22.3179 52.2813 22.2866C52.6221 22.2553 52.9474 22.1295 53.2205 21.9232C53.4937 21.7169 53.7037 21.4385 53.827 21.1192C53.9504 20.7999 53.982 20.4526 53.9185 20.1163L53.3858 16.9567L55.9024 14.5319C56.138 14.3111 56.3062 14.0281 56.3875 13.7157C56.4688 13.4032 56.4599 13.0742 56.3619 12.7666C56.2638 12.459 56.0806 12.1854 55.8335 11.9777C55.5864 11.7699 55.2854 11.6365 54.9656 11.5927L51.4937 11.0784L49.969 7.93717C49.828 7.65396 49.6104 7.41601 49.3408 7.25038C49.0713 7.08476 48.7607 6.99812 48.4443 7.00032V7.11054ZM30.7176 7.00032C30.3977 6.99241 30.0822 7.07648 29.8087 7.24255C29.5352 7.40862 29.3151 7.64971 29.1745 7.93717L27.5947 11.0784L24.1412 11.5744C23.8341 11.6284 23.5477 11.7654 23.3129 11.9706C23.0781 12.1759 22.904 12.4414 22.8094 12.7385C22.7148 13.0356 22.7033 13.3529 22.7761 13.6561C22.849 13.9593 23.0034 14.2368 23.2227 14.4584L25.721 16.92L25.0964 20.3551C25.0416 20.6705 25.0755 20.995 25.1945 21.2922C25.3134 21.5895 25.5126 21.8478 25.7699 22.0384C26.0271 22.229 26.3323 22.3442 26.6513 22.3714C26.9703 22.3985 27.2906 22.3364 27.5763 22.1921L30.7176 20.5755L33.6383 22.1186C33.9416 22.2603 34.2777 22.3166 34.6106 22.2812C34.9434 22.2458 35.2603 22.1202 35.5269 21.9179C35.7935 21.7155 35.9998 21.4442 36.1234 21.1331C36.2471 20.8221 36.2834 20.4832 36.2285 20.153L35.6958 16.9751L38.2124 14.5503C38.448 14.3295 38.6161 14.0465 38.6975 13.734C38.7788 13.4216 38.7699 13.0925 38.6719 12.7849C38.5738 12.4773 38.3906 12.2038 38.1435 11.9961C37.8964 11.7883 37.5954 11.6548 37.2755 11.6111L33.8037 11.0968L32.2606 7.95554C32.1227 7.66465 31.9037 7.41976 31.63 7.25031C31.3563 7.08086 31.0394 6.99405 30.7176 7.00032V7.00032ZM13.0276 7.00032C12.705 6.99112 12.3866 7.07446 12.1099 7.24047C11.8332 7.40649 11.6098 7.64825 11.4661 7.93717L9.95982 11.0784L6.48794 11.5744C6.17631 11.6202 5.8834 11.7513 5.64159 11.9531C5.39978 12.155 5.21849 12.4197 5.11774 12.7182C5.017 13.0166 5.00072 13.3371 5.07071 13.6442C5.1407 13.9513 5.29424 14.2331 5.51435 14.4584L8.01263 16.9383L7.4248 20.3735C7.36996 20.6889 7.4039 21.0133 7.52282 21.3106C7.64174 21.6079 7.84096 21.8662 8.09822 22.0568C8.35549 22.2473 8.66067 22.3626 8.97968 22.3898C9.29868 22.4169 9.61895 22.3548 9.90471 22.2104L13.0092 20.5755L15.8932 22.1186C16.1978 22.2701 16.5384 22.334 16.8772 22.3033C17.216 22.2726 17.5395 22.1484 17.8119 21.9447C18.0842 21.7409 18.2947 21.4655 18.4197 21.1491C18.5447 20.8328 18.5795 20.4879 18.5201 20.153L17.9874 16.9751L20.504 14.5503C20.7396 14.3295 20.9078 14.0465 20.9891 13.734C21.0704 13.4216 21.0615 13.0925 20.9635 12.7849C20.8654 12.4773 20.6822 12.2038 20.4351 11.9961C20.188 11.7883 19.887 11.6548 19.5672 11.6111L16.1137 11.0968L14.589 7.95554C14.4489 7.67025 14.2319 7.42971 13.9626 7.26096C13.6932 7.09221 13.3821 7.00194 13.0643 7.00032H13.0276Z" fill="#D2D2D2"/>
</g>
<defs>
<clipPath id="clip0_2_135">
<rect width="51.4351" height="48" fill="white" transform="translate(5 7)"/>
</clipPath>
</defs>
</svg>
