<svg width="302" height="52" viewBox="0 0 302 52" fill="none" xmlns="http://www.w3.org/2000/svg">
<path d="M26.5969 51.4858L11.1746 31.56V51.4858H0V6.36341H11.1746V26.1607L26.4662 6.36341H39.6013L21.8265 28.4747L40.2548 51.4858H26.5969Z" fill="white"/>
<path d="M52.2065 11.8912C50.246 11.8912 48.6341 11.3342 47.3707 10.22C46.1508 9.06304 45.5409 7.64895 45.5409 5.97775C45.5409 4.2637 46.1508 2.84961 47.3707 1.73548C48.6341 0.578492 50.246 0 52.2065 0C54.1234 0 55.6918 0.578492 56.9116 1.73548C58.175 2.84961 58.8067 4.2637 58.8067 5.97775C58.8067 7.64895 58.175 9.06304 56.9116 10.22C55.6918 11.3342 54.1234 11.8912 52.2065 11.8912ZM57.7611 15.6193V51.4858H46.5865V15.6193H57.7611Z" fill="white"/>
<path d="M64.6585 33.4883C64.6585 29.8031 65.3555 26.5678 66.7496 23.7824C68.1873 20.9971 70.126 18.8546 72.5657 17.3548C75.0054 15.855 77.7282 15.1051 80.7343 15.1051C83.1304 15.1051 85.3087 15.5979 87.2692 16.5834C89.2732 17.569 90.8416 18.8974 91.9743 20.5686V3.92089H103.149V51.4858H91.9743V46.3436C90.9287 48.0577 89.4257 49.4289 87.4652 50.4574C85.5483 51.4858 83.3047 52 80.7343 52C77.7282 52 75.0054 51.2501 72.5657 49.7503C70.126 48.2077 68.1873 46.0437 66.7496 43.2583C65.3555 40.4302 64.6585 37.1735 64.6585 33.4883ZM91.9743 33.5525C91.9743 30.8101 91.1901 28.6461 89.6217 27.0606C88.0969 25.4751 86.2236 24.6823 84.0017 24.6823C81.7799 24.6823 79.8847 25.4751 78.3164 27.0606C76.7916 28.6032 76.0292 30.7458 76.0292 33.4883C76.0292 36.2307 76.7916 38.4162 78.3164 40.0445C79.8847 41.63 81.7799 42.4227 84.0017 42.4227C86.2236 42.4227 88.0969 41.63 89.6217 40.0445C91.1901 38.459 91.9743 36.295 91.9743 33.5525Z" fill="white"/>
<path d="M127.088 52C123.908 52 121.076 51.4644 118.593 50.3931C116.11 49.3218 114.149 47.8649 112.712 46.0222C111.274 44.1368 110.468 42.0371 110.294 39.7231H121.338C121.468 40.9658 122.057 41.9728 123.102 42.7441C124.148 43.5154 125.433 43.9011 126.958 43.9011C128.352 43.9011 129.419 43.644 130.16 43.1298C130.944 42.5727 131.336 41.8657 131.336 41.0087C131.336 39.9802 130.792 39.2303 129.702 38.759C128.613 38.2447 126.849 37.6877 124.409 37.0878C121.795 36.4878 119.617 35.8665 117.874 35.2237C116.132 34.5381 114.629 33.4883 113.365 32.0742C112.102 30.6172 111.47 28.6675 111.47 26.225C111.47 24.1681 112.036 22.3041 113.169 20.6329C114.345 18.9188 116.045 17.569 118.266 16.5834C120.532 15.5979 123.211 15.1051 126.304 15.1051C130.879 15.1051 134.473 16.2192 137.087 18.4475C139.744 20.6757 141.269 23.6325 141.661 27.3177H131.336C131.162 26.075 130.596 25.0894 129.637 24.3609C128.722 23.6325 127.502 23.2682 125.978 23.2682C124.671 23.2682 123.669 23.5253 122.972 24.0396C122.274 24.5109 121.926 25.1751 121.926 26.0321C121.926 27.0606 122.471 27.8319 123.56 28.3461C124.692 28.8603 126.435 29.3745 128.788 29.8888C131.489 30.5744 133.689 31.26 135.388 31.9456C137.087 32.5884 138.568 33.6597 139.831 35.1595C141.138 36.6164 141.814 38.5876 141.857 41.0729C141.857 43.1726 141.247 45.0581 140.028 46.7293C138.851 48.3576 137.13 49.6432 134.865 50.5859C132.643 51.5286 130.051 52 127.088 52Z" fill="white"/>
<path d="M184.677 20.89C184.677 23.5039 184.067 25.9036 182.847 28.089C181.627 30.2316 179.754 31.967 177.227 33.2954C174.7 34.6238 171.563 35.288 167.817 35.288H160.89V51.4858H149.715V6.36341H167.817C171.476 6.36341 174.569 6.98476 177.096 8.22744C179.623 9.47013 181.518 11.1842 182.781 13.3696C184.045 15.555 184.677 18.0618 184.677 20.89ZM166.967 26.5464C169.102 26.5464 170.692 26.0536 171.738 25.068C172.783 24.0824 173.306 22.6897 173.306 20.89C173.306 19.0902 172.783 17.6976 171.738 16.712C170.692 15.7264 169.102 15.2336 166.967 15.2336H160.89V26.5464H166.967Z" fill="white"/>
<path d="M189.293 33.4883C189.293 29.8031 189.99 26.5678 191.384 23.7824C192.822 20.9971 194.761 18.8546 197.201 17.3548C199.64 15.855 202.363 15.1051 205.369 15.1051C207.94 15.1051 210.183 15.6193 212.1 16.6477C214.061 17.6761 215.564 19.026 216.609 20.6972V15.6193H227.784V51.4858H216.609V46.4079C215.52 48.0791 213.995 49.4289 212.035 50.4574C210.118 51.4858 207.874 52 205.304 52C202.341 52 199.64 51.2501 197.201 49.7503C194.761 48.2077 192.822 46.0437 191.384 43.2583C189.99 40.4302 189.293 37.1735 189.293 33.4883ZM216.609 33.5525C216.609 30.8101 215.825 28.6461 214.257 27.0606C212.732 25.4751 210.858 24.6823 208.637 24.6823C206.415 24.6823 204.52 25.4751 202.951 27.0606C201.426 28.6032 200.664 30.7458 200.664 33.4883C200.664 36.2307 201.426 38.4162 202.951 40.0445C204.52 41.63 206.415 42.4227 208.637 42.4227C210.858 42.4227 212.732 41.63 214.257 40.0445C215.825 38.459 216.609 36.295 216.609 33.5525Z" fill="white"/>
<path d="M248.064 21.597C249.371 19.6259 251.005 18.0832 252.965 16.9691C254.925 15.8121 257.104 15.2336 259.5 15.2336V26.8677H256.428C253.64 26.8677 251.549 27.4677 250.155 28.6675C248.761 29.8245 248.064 31.8813 248.064 34.8381V51.4858H236.889V15.6193H248.064V21.597Z" fill="white"/>
<path d="M288.146 51.4858L277.037 36.445V51.4858H265.862V3.92089H277.037V30.2101L288.081 15.6193H301.869L286.708 33.6168L302 51.4858H288.146Z" fill="white"/>
</svg>
