<svg width="148" height="26" viewBox="0 0 148 26" fill="none" xmlns="http://www.w3.org/2000/svg">
<path d="M13.024 25.632L5.472 15.712V25.632H0V3.168H5.472V13.024L12.96 3.168H19.392L10.688 14.176L19.712 25.632H13.024Z" fill="#D2D2D2"/>
<path d="M25.5645 5.92C24.6045 5.92 23.8152 5.64267 23.1965 5.088C22.5992 4.512 22.3005 3.808 22.3005 2.976C22.3005 2.12267 22.5992 1.41867 23.1965 0.864C23.8152 0.288 24.6045 0 25.5645 0C26.5032 0 27.2712 0.288 27.8685 0.864C28.4872 1.41867 28.7965 2.12267 28.7965 2.976C28.7965 3.808 28.4872 4.512 27.8685 5.088C27.2712 5.64267 26.5032 5.92 25.5645 5.92ZM28.2845 7.776V25.632H22.8125V7.776H28.2845Z" fill="#D2D2D2"/>
<path d="M31.662 16.672C31.662 14.8373 32.0033 13.2267 32.686 11.84C33.39 10.4533 34.3393 9.38667 35.534 8.64C36.7287 7.89333 38.062 7.52 39.534 7.52C40.7073 7.52 41.774 7.76533 42.734 8.256C43.7153 8.74667 44.4833 9.408 45.038 10.24V1.952H50.51V25.632H45.038V23.072C44.526 23.9253 43.79 24.608 42.83 25.12C41.8913 25.632 40.7927 25.888 39.534 25.888C38.062 25.888 36.7287 25.5147 35.534 24.768C34.3393 24 33.39 22.9227 32.686 21.536C32.0033 20.128 31.662 18.5067 31.662 16.672ZM45.038 16.704C45.038 15.3387 44.654 14.2613 43.886 13.472C43.1393 12.6827 42.222 12.288 41.134 12.288C40.046 12.288 39.118 12.6827 38.35 13.472C37.6033 14.24 37.23 15.3067 37.23 16.672C37.23 18.0373 37.6033 19.1253 38.35 19.936C39.118 20.7253 40.046 21.12 41.134 21.12C42.222 21.12 43.1393 20.7253 43.886 19.936C44.654 19.1467 45.038 18.0693 45.038 16.704Z" fill="#D2D2D2"/>
<path d="M62.2327 25.888C60.6754 25.888 59.2888 25.6213 58.0728 25.088C56.8568 24.5547 55.8967 23.8293 55.1927 22.912C54.4887 21.9733 54.0941 20.928 54.0087 19.776H59.4167C59.4807 20.3947 59.7688 20.896 60.2808 21.28C60.7928 21.664 61.4221 21.856 62.1687 21.856C62.8514 21.856 63.3741 21.728 63.7367 21.472C64.1207 21.1947 64.3128 20.8427 64.3128 20.416C64.3128 19.904 64.0461 19.5307 63.5127 19.296C62.9794 19.04 62.1154 18.7627 60.9207 18.464C59.6407 18.1653 58.5741 17.856 57.7207 17.536C56.8674 17.1947 56.1314 16.672 55.5127 15.968C54.8941 15.2427 54.5847 14.272 54.5847 13.056C54.5847 12.032 54.8621 11.104 55.4167 10.272C55.9927 9.41867 56.8248 8.74667 57.9128 8.256C59.0221 7.76533 60.3341 7.52 61.8487 7.52C64.0887 7.52 65.8487 8.07467 67.1287 9.184C68.4301 10.2933 69.1768 11.7653 69.3688 13.6H64.3128C64.2274 12.9813 63.9501 12.4907 63.4808 12.128C63.0328 11.7653 62.4354 11.584 61.6888 11.584C61.0488 11.584 60.5581 11.712 60.2168 11.968C59.8754 12.2027 59.7048 12.5333 59.7048 12.96C59.7048 13.472 59.9714 13.856 60.5047 14.112C61.0594 14.368 61.9128 14.624 63.0648 14.88C64.3874 15.2213 65.4647 15.5627 66.2967 15.904C67.1287 16.224 67.8541 16.7573 68.4727 17.504C69.1127 18.2293 69.4434 19.2107 69.4648 20.448C69.4648 21.4933 69.1661 22.432 68.5687 23.264C67.9927 24.0747 67.1501 24.7147 66.0407 25.184C64.9527 25.6533 63.6834 25.888 62.2327 25.888Z" fill="#D2D2D2"/>
<path d="M90.4325 10.4C90.4325 11.7013 90.1338 12.896 89.5365 13.984C88.9392 15.0507 88.0218 15.9147 86.7845 16.576C85.5472 17.2373 84.0112 17.568 82.1765 17.568H78.7845V25.632H73.3125V3.168H82.1765C83.9685 3.168 85.4832 3.47733 86.7205 4.096C87.9578 4.71467 88.8858 5.568 89.5045 6.656C90.1232 7.744 90.4325 8.992 90.4325 10.4ZM81.7605 13.216C82.8058 13.216 83.5845 12.9707 84.0965 12.48C84.6085 11.9893 84.8645 11.296 84.8645 10.4C84.8645 9.504 84.6085 8.81067 84.0965 8.32C83.5845 7.82933 82.8058 7.584 81.7605 7.584H78.7845V13.216H81.7605Z" fill="#D2D2D2"/>
<path d="M92.6933 16.672C92.6933 14.8373 93.0346 13.2267 93.7172 11.84C94.4212 10.4533 95.3706 9.38667 96.5652 8.64C97.7599 7.89333 99.0932 7.52 100.565 7.52C101.824 7.52 102.923 7.776 103.861 8.288C104.821 8.8 105.557 9.472 106.069 10.304V7.776H111.541V25.632H106.069V23.104C105.536 23.936 104.789 24.608 103.829 25.12C102.891 25.632 101.792 25.888 100.533 25.888C99.0826 25.888 97.7599 25.5147 96.5652 24.768C95.3706 24 94.4212 22.9227 93.7172 21.536C93.0346 20.128 92.6933 18.5067 92.6933 16.672ZM106.069 16.704C106.069 15.3387 105.685 14.2613 104.917 13.472C104.171 12.6827 103.253 12.288 102.165 12.288C101.077 12.288 100.149 12.6827 99.3812 13.472C98.6346 14.24 98.2612 15.3067 98.2612 16.672C98.2612 18.0373 98.6346 19.1253 99.3812 19.936C100.149 20.7253 101.077 21.12 102.165 21.12C103.253 21.12 104.171 20.7253 104.917 19.936C105.685 19.1467 106.069 18.0693 106.069 16.704Z" fill="#D2D2D2"/>
<path d="M121.472 10.752C122.112 9.77067 122.912 9.00267 123.872 8.448C124.832 7.872 125.899 7.584 127.072 7.584V13.376H125.568C124.203 13.376 123.179 13.6747 122.496 14.272C121.813 14.848 121.472 15.872 121.472 17.344V25.632H116V7.776H121.472V10.752Z" fill="#D2D2D2"/>
<path d="M141.1 25.632L135.66 18.144V25.632H130.188V1.952H135.66V15.04L141.068 7.776H147.82L140.396 16.736L147.883 25.632H141.1Z" fill="#D2D2D2"/>
</svg>
